<mxfile host="app.diagrams.net" modified="2023-10-31T00:52:12.828Z" agent="Mozilla/5.0 (Windows NT 10.0; Win64; x64) AppleWebKit/537.36 (KHTML, like Gecko) Chrome/107.0.0.0 Safari/537.36" version="22.0.8" etag="APzQYxpUFMPWw7mAKtzb" type="github">
  <diagram name="第 1 页" id="9FvJahLJONWX5p6Ms0cg">
    <mxGraphModel>
      <root>
        <mxCell id="0" />
        <mxCell id="1" parent="0" />
      </root>
    </mxGraphModel>
  </diagram>
</mxfile>
